<?xml version="1.0" encoding="utf-8"?><svg xmlns="http://www.w3.org/2000/svg" xmlns:xlink="http://www.w3.org/1999/xlink" width="1366" height="651" preserveAspectRatio="xMidYMid" viewBox="0 0 1366 651" style="z-index:1;margin-right:-2px;display:block;background-color:rgb(153, 204, 255);animation-play-state:paused" ><g transform="translate(683,325.5) scale(1,1) translate(-683,-325.5)" style="transform:matrix(1, 0, 0, 1, 0, 0);animation-play-state:paused" ><defs style="animation-play-state:paused" ><linearGradient id="lg-0.38123431034692445" x1="0" x2="0" y1="0" y2="1" style="animation-play-state:paused" ><stop stop-color="#3184ce" offset="0" style="animation-play-state:paused" ></stop>

  
<stop stop-color="#e9f6ff" offset="1" style="animation-play-state:paused" ></stop></linearGradient></defs>


<rect x="0" y="0" width="1366" height="651" fill="url(#lg-0.38123431034692445)" style="animation-play-state:paused" ></rect>
<circle cx="0" cy="247.58218301891873" r="36.18151415090106" fill="#91cbf0" transform="matrix(1,0,0,1,0,0)" style="transform:matrix(1, 0, 0, 1, 0, 0);animation-play-state:paused" ></circle>
<circle cx="36.18151415090106" cy="199.4839197149398" r="80.52939658004573" fill="#91cbf0" transform="matrix(1,0,0,1,-0.005429744720458984,0)" style="transform:matrix(1, 0, 0, 1, -0.00542974, 0);animation-play-state:paused" ></circle>
<circle cx="116.71091073094678" cy="250.7757343040984" r="40.42866383811467" fill="#91cbf0" transform="matrix(1,0,0,1,-0.022117653861641884,0)" style="transform:matrix(1, 0, 0, 1, -0.0221177, 0);animation-play-state:paused" ></circle>
<circle cx="157.13957456906144" cy="233.1552341900714" r="62.60846214691021" fill="#91cbf0" transform="matrix(1,0,0,1,-0.05069183558225632,0)" style="transform:matrix(1, 0, 0, 1, -0.0506918, 0);animation-play-state:paused" ></circle>
<circle cx="219.74803671597164" cy="237.64754135277153" r="65.55059331307352" fill="#91cbf0" transform="matrix(1,0,0,1,-0.09182170033454895,0)" style="transform:matrix(1, 0, 0, 1, -0.0918217, 0);animation-play-state:paused" ></circle>
<circle cx="285.29863002904517" cy="264.1323042776294" r="38.45145621809844" fill="#91cbf0" transform="matrix(1,0,0,1,-0.14621886610984802,0)" style="transform:matrix(1, 0, 0, 1, -0.146219, 0);animation-play-state:paused" ></circle>
<circle cx="323.7500862471436" cy="243.75985813898714" r="74.84348094900375" fill="#91cbf0" transform="matrix(1,0,0,1,-0.21463720500469208,0)" style="transform:matrix(1, 0, 0, 1, -0.214637, 0);animation-play-state:paused" ></circle>
<circle cx="398.5935671961473" cy="270.5967217742936" r="40.83193809053874" fill="#91cbf0" transform="matrix(1,0,0,1,-0.2978716492652893,0)" style="transform:matrix(1, 0, 0, 1, -0.297872, 0);animation-play-state:paused" ></circle>
<circle cx="439.4255052866861" cy="272.0229226312105" r="44.344215439232315" fill="#91cbf0" transform="matrix(1,0,0,1,-0.3967548906803131,0)" style="transform:matrix(1, 0, 0, 1, -0.396755, 0);animation-play-state:paused" ></circle>
<circle cx="483.7697207259184" cy="270.5368885546897" r="58.459592454483726" fill="#91cbf0" transform="matrix(1,0,0,1,-0.5121519565582275,0)" style="transform:matrix(1, 0, 0, 1, -0.512152, 0);animation-play-state:paused" ></circle>
<circle cx="542.2293131804021" cy="274.21766633100515" r="67.85464452205663" fill="#91cbf0" transform="matrix(1,0,0,1,-0.6449503302574158,0)" style="transform:matrix(1, 0, 0, 1, -0.64495, 0);animation-play-state:paused" ></circle>
<circle cx="610.0839577024587" cy="285.7268212135632" r="41.16127943925476" fill="#91cbf0" transform="matrix(1,0,0,1,-0.7960466146469116,0)" style="transform:matrix(1, 0, 0, 1, -0.796047, 0);animation-play-state:paused" ></circle>
<circle cx="651.2452371417135" cy="288.9644435077595" r="36.48494900341832" fill="#91cbf0" transform="matrix(1,0,0,1,-0.9663257002830505,0)" style="transform:matrix(1, 0, 0, 1, -0.966326, 0);animation-play-state:paused" ></circle>
<circle cx="687.7301861451318" cy="290.3609351470102" r="76.89642669440535" fill="#91cbf0" transform="matrix(1,0,0,1,-1.156632423400879,0)" style="transform:matrix(1, 0, 0, 1, -1.15663, 0);animation-play-state:paused" ></circle>
<circle cx="764.6266128395372" cy="285.8117370223977" r="36.17675953989389" fill="#91cbf0" transform="matrix(1,0,0,1,-1.3677335977554321,0)" style="transform:matrix(1, 0, 0, 1, -1.36773, 0);animation-play-state:paused" ></circle>
<circle cx="800.803372379431" cy="279.3010050950618" r="56.52366141053395" fill="#91cbf0" transform="matrix(1,0,0,1,-1.600266933441162,0)" style="transform:matrix(1, 0, 0, 1, -1.60027, 0);animation-play-state:paused" ></circle>
<circle cx="857.327033789965" cy="278.5512749319457" r="40.644294790049265" fill="#91cbf0" transform="matrix(1,0,0,1,-1.8546782732009888,0)" style="transform:matrix(1, 0, 0, 1, -1.85468, 0);animation-play-state:paused" ></circle>
<circle cx="897.9713285800142" cy="263.57936011877246" r="72.59998020273807" fill="#91cbf0" transform="matrix(1,0,0,1,-2.131143569946289,0)" style="transform:matrix(1, 0, 0, 1, -2.13114, 0);animation-play-state:paused" ></circle>
<circle cx="970.5713087827522" cy="248.21456919572125" r="84.68174775796416" fill="#91cbf0" transform="matrix(1,0,0,1,-2.4294803142547607,0)" style="transform:matrix(1, 0, 0, 1, -2.42948, 0);animation-play-state:paused" ></circle>
<circle cx="1055.2530565407164" cy="260.5435333610631" r="46.567261949217084" fill="#91cbf0" transform="matrix(1,0,0,1,-2.749046802520752,0)" style="transform:matrix(1, 0, 0, 1, -2.74905, 0);animation-play-state:paused" ></circle>
<circle cx="1101.8203184899335" cy="256.9993049758199" r="46.20612085162642" fill="#91cbf0" transform="matrix(1,0,0,1,-3.0886495113372803,0)" style="transform:matrix(1, 0, 0, 1, -3.08865, 0);animation-play-state:paused" ></circle>
<circle cx="1148.0264393415598" cy="262.9443987260211" r="34.33850574399489" fill="#91cbf0" transform="matrix(1,0,0,1,-3.446460723876953,0)" style="transform:matrix(1, 0, 0, 1, -3.44646, 0);animation-play-state:paused" ></circle>
<circle cx="1182.3649450855546" cy="225.04745344046216" r="75.17145817482047" fill="#91cbf0" transform="matrix(1,0,0,1,-3.819972276687622,0)" style="transform:matrix(1, 0, 0, 1, -3.81997, 0);animation-play-state:paused" ></circle>
<circle cx="1257.536403260375" cy="252.47923843580767" r="38.160738523328526" fill="#91cbf0" transform="matrix(1,0,0,1,-4.205999374389648,0)" style="transform:matrix(1, 0, 0, 1, -4.206, 0);animation-play-state:paused" ></circle>
<circle cx="1295.6971417837035" cy="258.32972858489234" r="30.349136975403972" fill="#91cbf0" transform="matrix(1,0,0,1,-4.60075569152832,0)" style="transform:matrix(1, 0, 0, 1, -4.60076, 0);animation-play-state:paused" ></circle>
<circle cx="1326.0462787591075" cy="221.59262904083084" r="61.43315539770955" fill="#91cbf0" transform="matrix(1,0,0,1,-5,0)" style="transform:matrix(1, 0, 0, 1, -5, 0);animation-play-state:paused" ></circle>
<circle cx="1387.479434156817" cy="187.72468570998842" r="83.43872586394575" fill="#91cbf0" transform="matrix(1,0,0,1,-5.399243354797363,0)" style="transform:matrix(1, 0, 0, 1, -5.39924, 0);animation-play-state:paused" ></circle>
<circle cx="0" cy="272.32393654294236" r="65.56338621421472" fill="#a8d1f5" transform="matrix(1,0,0,1,0,0)" style="transform:matrix(1, 0, 0, 1, 0, 0);animation-play-state:paused" ></circle>
<circle cx="65.56338621421472" cy="282.6803646556141" r="62.978544272622656" fill="#a8d1f5" transform="matrix(1,0,0,1,-0.022117653861641884,0)" style="transform:matrix(1, 0, 0, 1, -0.0221177, 0);animation-play-state:paused" ></circle>
<circle cx="128.54193048683737" cy="290.89219807944704" r="61.70233447917963" fill="#a8d1f5" transform="matrix(1,0,0,1,-0.09182170033454895,0)" style="transform:matrix(1, 0, 0, 1, -0.0918217, 0);animation-play-state:paused" ></circle>
<circle cx="190.244264966017" cy="309.8075284919801" r="47.58012953084029" fill="#a8d1f5" transform="matrix(1,0,0,1,-0.21463720500469208,0)" style="transform:matrix(1, 0, 0, 1, -0.214637, 0);animation-play-state:paused" ></circle>
<circle cx="237.82439449685728" cy="286.53080542192333" r="82.42526348499482" fill="#a8d1f5" transform="matrix(1,0,0,1,-0.3967548906803131,0)" style="transform:matrix(1, 0, 0, 1, -0.396755, 0);animation-play-state:paused" ></circle>
<circle cx="320.2496579818521" cy="306.86564104794996" r="69.24819375897867" fill="#a8d1f5" transform="matrix(1,0,0,1,-0.6449503302574158,0)" style="transform:matrix(1, 0, 0, 1, -0.64495, 0);animation-play-state:paused" ></circle>
<circle cx="389.4978517408308" cy="316.5424513457316" r="66.82093546973466" fill="#a8d1f5" transform="matrix(1,0,0,1,-0.9663257002830505,0)" style="transform:matrix(1, 0, 0, 1, -0.966326, 0);animation-play-state:paused" ></circle>
<circle cx="456.31878721056546" cy="334.21089344461143" r="42.15523508478156" fill="#a8d1f5" transform="matrix(1,0,0,1,-1.3677335977554321,0)" style="transform:matrix(1, 0, 0, 1, -1.36773, 0);animation-play-state:paused" ></circle>
<circle cx="498.474022295347" cy="330.6975841783405" r="62.62239323825652" fill="#a8d1f5" transform="matrix(1,0,0,1,-1.8546782732009888,0)" style="transform:matrix(1, 0, 0, 1, -1.85468, 0);animation-play-state:paused" ></circle>
<circle cx="561.0964155336036" cy="335.3720037316837" r="72.9669646848541" fill="#a8d1f5" transform="matrix(1,0,0,1,-2.4294803142547607,0)" style="transform:matrix(1, 0, 0, 1, -2.42948, 0);animation-play-state:paused" ></circle>
<circle cx="634.0633802184577" cy="346.7142824445138" r="49.8458533960891" fill="#a8d1f5" transform="matrix(1,0,0,1,-3.0886495113372803,0)" style="transform:matrix(1, 0, 0, 1, -3.08865, 0);animation-play-state:paused" ></circle>
<circle cx="683.9092336145468" cy="350.86863767989666" r="82.23085097450678" fill="#a8d1f5" transform="matrix(1,0,0,1,-3.819972276687622,0)" style="transform:matrix(1, 0, 0, 1, -3.81997, 0);animation-play-state:paused" ></circle>
<circle cx="766.1400845890536" cy="345.69490878722775" r="36.31799386374176" fill="#a8d1f5" transform="matrix(1,0,0,1,-4.60075569152832,0)" style="transform:matrix(1, 0, 0, 1, -4.60076, 0);animation-play-state:paused" ></circle>
<circle cx="802.4580784527953" cy="342.65599209612583" r="39.755629981651126" fill="#a8d1f5" transform="matrix(1,0,0,1,-5.399243354797363,0)" style="transform:matrix(1, 0, 0, 1, -5.39924, 0);animation-play-state:paused" ></circle>
<circle cx="842.2137084344465" cy="328.7557801163998" r="79.5199647583231" fill="#a8d1f5" transform="matrix(1,0,0,1,-6.180027961730957,0)" style="transform:matrix(1, 0, 0, 1, -6.18003, 0);animation-play-state:paused" ></circle>
<circle cx="921.7336731927696" cy="316.776389265887" r="81.59275640644141" fill="#a8d1f5" transform="matrix(1,0,0,1,-6.911351203918457,0)" style="transform:matrix(1, 0, 0, 1, -6.91135, 0);animation-play-state:paused" ></circle>
<circle cx="1003.326429599211" cy="304.7826900087296" r="82.12045538341741" fill="#a8d1f5" transform="matrix(1,0,0,1,-7.57051944732666,0)" style="transform:matrix(1, 0, 0, 1, -7.57052, 0);animation-play-state:paused" ></circle>
<circle cx="1085.4468849826285" cy="293.3066331195942" r="81.59372712628905" fill="#a8d1f5" transform="matrix(1,0,0,1,-8.1453218460083,0)" style="transform:matrix(1, 0, 0, 1, -8.14532, 0);animation-play-state:paused" ></circle>
<circle cx="1167.0406121089175" cy="311.7022493756161" r="46.20887002214097" fill="#a8d1f5" transform="matrix(1,0,0,1,-8.632266998291016,0)" style="transform:matrix(1, 0, 0, 1, -8.63227, 0);animation-play-state:paused" ></circle>
<circle cx="1213.2494821310584" cy="299.64203733578177" r="55.12733421050154" fill="#a8d1f5" transform="matrix(1,0,0,1,-9.033674240112305,0)" style="transform:matrix(1, 0, 0, 1, -9.03367, 0);animation-play-state:paused" ></circle>
<circle cx="1268.3768163415598" cy="266.6772224390285" r="81.9877263476202" fill="#a8d1f5" transform="matrix(1,0,0,1,-9.355050086975098,0)" style="transform:matrix(1, 0, 0, 1, -9.35505, 0);animation-play-state:paused" ></circle>
<circle cx="1350.3645426891799" cy="285.8079591836145" r="55.59950250749364" fill="#a8d1f5" transform="matrix(1,0,0,1,-9.60324478149414,0)" style="transform:matrix(1, 0, 0, 1, -9.60324, 0);animation-play-state:paused" ></circle>
<circle cx="1405.9640451966734" cy="286.414039915159" r="50.8464782712053" fill="#a8d1f5" transform="matrix(1,0,0,1,-9.785362243652344,0)" style="transform:matrix(1, 0, 0, 1, -9.78536, 0);animation-play-state:paused" ></circle>
<circle cx="0" cy="309.7931091335556" r="84.33907572203698" fill="#bdd7f8" transform="matrix(1,0,0,1,0,0)" style="transform:matrix(1, 0, 0, 1, 0, 0);animation-play-state:paused" ></circle>
<circle cx="84.33907572203698" cy="367.8960535553464" r="40.980342165594564" fill="#bdd7f8" transform="matrix(1,0,0,1,-0.05069184675812721,0)" style="transform:matrix(1, 0, 0, 1, -0.0506918, 0);animation-play-state:paused" ></circle>
<circle cx="125.31941788763154" cy="365.3439774018775" r="46.5963618403257" fill="#bdd7f8" transform="matrix(1,0,0,1,-0.21463721990585327,0)" style="transform:matrix(1, 0, 0, 1, -0.214637, 0);animation-play-state:paused" ></circle>
<circle cx="171.91577972795724" cy="347.6549750490981" r="70.54390503786382" fill="#bdd7f8" transform="matrix(1,0,0,1,-0.5121519565582275,0)" style="transform:matrix(1, 0, 0, 1, -0.512152, 0);animation-play-state:paused" ></circle>
<circle cx="242.45968476582107" cy="370.5016693651132" r="52.322793297067896" fill="#bdd7f8" transform="matrix(1,0,0,1,-0.9663258790969849,0)" style="transform:matrix(1, 0, 0, 1, -0.966326, 0);animation-play-state:paused" ></circle>
<circle cx="294.78247806288897" cy="350.8126455518955" r="88.2408288419866" fill="#bdd7f8" transform="matrix(1,0,0,1,-1.600266933441162,0)" style="transform:matrix(1, 0, 0, 1, -1.60027, 0);animation-play-state:paused" ></circle>
<circle cx="383.02330690487554" cy="392.71165508767683" r="34.699750187913665" fill="#bdd7f8" transform="matrix(1,0,0,1,-2.4294803142547607,0)" style="transform:matrix(1, 0, 0, 1, -2.42948, 0);animation-play-state:paused" ></circle>
<circle cx="417.7230570927892" cy="376.6552294447593" r="73.68864538368621" fill="#bdd7f8" transform="matrix(1,0,0,1,-3.4464612007141113,0)" style="transform:matrix(1, 0, 0, 1, -3.44646, 0);animation-play-state:paused" ></circle>
<circle cx="491.4117024764754" cy="386.85371722572324" r="71.73329194252243" fill="#bdd7f8" transform="matrix(1,0,0,1,-4.600756645202637,0)" style="transform:matrix(1, 0, 0, 1, -4.60076, 0);animation-play-state:paused" ></circle>
<circle cx="563.1449944189978" cy="399.8599542484012" r="52.90177641071879" fill="#bdd7f8" transform="matrix(1,0,0,1,-5.79400110244751,0)" style="transform:matrix(1, 0, 0, 1, -5.794, 0);animation-play-state:paused" ></circle>
<circle cx="616.0467708297166" cy="404.7122578917251" r="53.45183885790657" fill="#bdd7f8" transform="matrix(1,0,0,1,-6.911351203918457,0)" style="transform:matrix(1, 0, 0, 1, -6.91135, 0);animation-play-state:paused" ></circle>
<circle cx="669.4986096876231" cy="410.21483048961863" r="33.09972548400256" fill="#bdd7f8" transform="matrix(1,0,0,1,-7.868856906890869,0)" style="transform:matrix(1, 0, 0, 1, -7.86886, 0);animation-play-state:paused" ></circle>
<circle cx="702.5983351716256" cy="409.11674239558073" r="54.692780983449666" fill="#bdd7f8" transform="matrix(1,0,0,1,-8.632266998291016,0)" style="transform:matrix(1, 0, 0, 1, -8.63227, 0);animation-play-state:paused" ></circle>
<circle cx="757.2911161550753" cy="401.0027248998414" r="76.59214235830581" fill="#bdd7f8" transform="matrix(1,0,0,1,-9.203953742980957,0)" style="transform:matrix(1, 0, 0, 1, -9.20395, 0);animation-play-state:paused" ></circle>
<circle cx="833.8832585133812" cy="394.44630277868583" r="62.44438754369196" fill="#bdd7f8" transform="matrix(1,0,0,1,-9.60324478149414,0)" style="transform:matrix(1, 0, 0, 1, -9.60324, 0);animation-play-state:paused" ></circle>
<circle cx="896.3276460570731" cy="397.4723025253513" r="36.09243631395507" fill="#bdd7f8" transform="matrix(1,0,0,1,-9.853781700134277,0)" style="transform:matrix(1, 0, 0, 1, -9.85378, 0);animation-play-state:paused" ></circle>
<circle cx="932.4200823710282" cy="390.1793753094717" r="47.51183401261753" fill="#bdd7f8" transform="matrix(1,0,0,1,-9.977882385253906,0)" style="transform:matrix(1, 0, 0, 1, -9.97788, 0);animation-play-state:paused" ></circle>
<circle cx="979.9319163836458" cy="394.8730397886181" r="30.912568439152622" fill="#bdd7f8" transform="matrix(1,0,0,1,-9.9945707321167,0)" style="transform:matrix(1, 0, 0, 1, -9.99457, 0);animation-play-state:paused" ></circle>
<circle cx="1010.8444848227984" cy="363.7668691731843" r="82.00084147659193" fill="#bdd7f8" transform="matrix(1,0,0,1,-9.908178329467773,0)" style="transform:matrix(1, 0, 0, 1, -9.90818, 0);animation-play-state:paused" ></circle>
<circle cx="1092.8453262993903" cy="386.1855478688495" r="34.460705291364725" fill="#bdd7f8" transform="matrix(1,0,0,1,-9.702128410339355,0)" style="transform:matrix(1, 0, 0, 1, -9.70213, 0);animation-play-state:paused" ></circle>
<circle cx="1127.306031590755" cy="383.60630192921997" r="35.091983250365104" fill="#bdd7f8" transform="matrix(1,0,0,1,-9.355049133300781,0)" style="transform:matrix(1, 0, 0, 1, -9.35505, 0);animation-play-state:paused" ></circle>
<circle cx="1162.3980148411201" cy="338.65564036050216" r="85.89104825933389" fill="#bdd7f8" transform="matrix(1,0,0,1,-8.843367576599121,0)" style="transform:matrix(1, 0, 0, 1, -8.84337, 0);animation-play-state:paused" ></circle>
<circle cx="1248.289063100454" cy="328.51711130361775" r="83.04868054384238" fill="#bdd7f8" transform="matrix(1,0,0,1,-8.145320892333984,0)" style="transform:matrix(1, 0, 0, 1, -8.14532, 0);animation-play-state:paused" ></circle>
<circle cx="1331.3377436442966" cy="320.97515151849996" r="79.03155944519388" fill="#bdd7f8" transform="matrix(1,0,0,1,-7.250953197479248,0)" style="transform:matrix(1, 0, 0, 1, -7.25095, 0);animation-play-state:paused" ></circle>
<circle cx="1410.3693030894904" cy="318.17658579922266" r="72.63434547605002" fill="#bdd7f8" transform="matrix(1,0,0,1,-6.180026531219482,0)" style="transform:matrix(1, 0, 0, 1, -6.18003, 0);animation-play-state:paused" ></circle>
<circle cx="0" cy="424.4691362028821" r="38.77571983093158" fill="#cfddfa" transform="matrix(1,0,0,1,0,0)" style="transform:matrix(1, 0, 0, 1, 0, 0);animation-play-state:paused" ></circle>
<circle cx="38.77571983093158" cy="433.4171287587342" r="33.20414676475718" fill="#cfddfa" transform="matrix(1,0,0,1,-0.09182170033454895,0)" style="transform:matrix(1, 0, 0, 1, -0.0918217, 0);animation-play-state:paused" ></circle>
<circle cx="71.97986659568876" cy="376.0736992389779" r="88.42406858531058" fill="#cfddfa" transform="matrix(1,0,0,1,-0.3967548906803131,0)" style="transform:matrix(1, 0, 0, 1, -0.396755, 0);animation-play-state:paused" ></circle>
<circle cx="160.40393518099933" cy="406.24764384528436" r="70.52269466314655" fill="#cfddfa" transform="matrix(1,0,0,1,-0.9663257002830505,0)" style="transform:matrix(1, 0, 0, 1, -0.966326, 0);animation-play-state:paused" ></circle>
<circle cx="230.92662984414588" cy="435.81455390942017" r="44.29896647009054" fill="#cfddfa" transform="matrix(1,0,0,1,-1.8546782732009888,0)" style="transform:matrix(1, 0, 0, 1, -1.85468, 0);animation-play-state:paused" ></circle>
<circle cx="275.22559631423644" cy="407.99913357966585" r="87.93586064613847" fill="#cfddfa" transform="matrix(1,0,0,1,-3.0886495113372803,0)" style="transform:matrix(1, 0, 0, 1, -3.08865, 0);animation-play-state:paused" ></circle>
<circle cx="363.1614569603749" cy="437.4401379771715" r="59.72124128566988" fill="#cfddfa" transform="matrix(1,0,0,1,-4.60075569152832,0)" style="transform:matrix(1, 0, 0, 1, -4.60076, 0);animation-play-state:paused" ></circle>
<circle cx="422.88269824604475" cy="432.026987368401" r="85.27744805867293" fill="#cfddfa" transform="matrix(1,0,0,1,-6.180027961730957,0)" style="transform:matrix(1, 0, 0, 1, -6.18003, 0);animation-play-state:paused" ></circle>
<circle cx="508.16014630471767" cy="460.63105155778413" r="33.7546600329475" fill="#cfddfa" transform="matrix(1,0,0,1,-7.57051944732666,0)" style="transform:matrix(1, 0, 0, 1, -7.57052, 0);animation-play-state:paused" ></circle>
<circle cx="541.9148063376651" cy="451.3140955672289" r="79.41698427359587" fill="#cfddfa" transform="matrix(1,0,0,1,-8.632266998291016,0)" style="transform:matrix(1, 0, 0, 1, -8.63227, 0);animation-play-state:paused" ></circle>
<circle cx="621.331790611261" cy="462.19001809638576" r="81.31171770960188" fill="#cfddfa" transform="matrix(1,0,0,1,-9.355050086975098,0)" style="transform:matrix(1, 0, 0, 1, -9.35505, 0);animation-play-state:paused" ></circle>
<circle cx="702.6435083208629" cy="468.43578745325965" r="74.29753809827352" fill="#cfddfa" transform="matrix(1,0,0,1,-9.785362243652344,0)" style="transform:matrix(1, 0, 0, 1, -9.78536, 0);animation-play-state:paused" ></circle>
<circle cx="776.9410464191365" cy="461.28328659001534" r="58.87127718208691" fill="#cfddfa" transform="matrix(1,0,0,1,-9.977882385253906,0)" style="transform:matrix(1, 0, 0, 1, -9.97788, 0);animation-play-state:paused" ></circle>
<circle cx="835.8123236012234" cy="457.09486348116906" r="51.7912431108704" fill="#cfddfa" transform="matrix(1,0,0,1,-9.977882385253906,0)" style="transform:matrix(1, 0, 0, 1, -9.97788, 0);animation-play-state:paused" ></circle>
<circle cx="887.6035667120938" cy="456.64484847819824" r="39.93319311317701" fill="#cfddfa" transform="matrix(1,0,0,1,-9.78536319732666,0)" style="transform:matrix(1, 0, 0, 1, -9.78536, 0);animation-play-state:paused" ></circle>
<circle cx="927.5367598252708" cy="440.43947082569036" r="71.13055122730763" fill="#cfddfa" transform="matrix(1,0,0,1,-9.355049133300781,0)" style="transform:matrix(1, 0, 0, 1, -9.35505, 0);animation-play-state:paused" ></circle>
<circle cx="998.6673110525784" cy="444.8853236701959" r="47.08629229979972" fill="#cfddfa" transform="matrix(1,0,0,1,-8.632266998291016,0)" style="transform:matrix(1, 0, 0, 1, -8.63227, 0);animation-play-state:paused" ></circle>
<circle cx="1045.7536033523781" cy="420.7549714639207" r="78.83531726264334" fill="#cfddfa" transform="matrix(1,0,0,1,-7.57051944732666,0)" style="transform:matrix(1, 0, 0, 1, -7.57052, 0);animation-play-state:paused" ></circle>
<circle cx="1124.5889206150214" cy="430.0255472910636" r="52.81222326492173" fill="#cfddfa" transform="matrix(1,0,0,1,-6.180026531219482,0)" style="transform:matrix(1, 0, 0, 1, -6.18003, 0);animation-play-state:paused" ></circle>
<circle cx="1177.401143879943" cy="408.41774241501207" r="72.0462227546382" fill="#cfddfa" transform="matrix(1,0,0,1,-4.600756645202637,0)" style="transform:matrix(1, 0, 0, 1, -4.60076, 0);animation-play-state:paused" ></circle>
<circle cx="1249.4473666345812" cy="414.7862111971002" r="56.48364998806791" fill="#cfddfa" transform="matrix(1,0,0,1,-3.088648796081543,0)" style="transform:matrix(1, 0, 0, 1, -3.08865, 0);animation-play-state:paused" ></circle>
<circle cx="1305.9310166226492" cy="397.2262294222711" r="67.40645427291874" fill="#cfddfa" transform="matrix(1,0,0,1,-1.8546791076660156,0)" style="transform:matrix(1, 0, 0, 1, -1.85468, 0);animation-play-state:paused" ></circle>
<circle cx="1373.337470895568" cy="434.16665790430704" r="30.36820602480376" fill="#cfddfa" transform="matrix(1,0,0,1,-0.9663257598876953,0)" style="transform:matrix(1, 0, 0, 1, -0.966326, 0);animation-play-state:paused" ></circle>
<circle cx="1403.7056769203718" cy="378.44057098216956" r="73.09744236754378" fill="#cfddfa" transform="matrix(1,0,0,1,-0.3967552185058594,0)" style="transform:matrix(1, 0, 0, 1, -0.396755, 0);animation-play-state:paused" ></circle>
<circle cx="0" cy="446.1527679311851" r="70.70602672401242" fill="#dfe5fb" transform="matrix(1,0,0,1,0,0)" style="transform:matrix(1, 0, 0, 1, 0, 0);animation-play-state:paused" ></circle>
<circle cx="70.70602672401242" cy="455.69606521505386" r="69.99985532948034" fill="#dfe5fb" transform="matrix(1,0,0,1,-0.14621886610984802,0)" style="transform:matrix(1, 0, 0, 1, -0.146219, 0);animation-play-state:paused" ></circle>
<circle cx="140.70588205349276" cy="493.2990819575208" r="39.56912889589508" fill="#dfe5fb" transform="matrix(1,0,0,1,-0.6449503302574158,0)" style="transform:matrix(1, 0, 0, 1, -0.64495, 0);animation-play-state:paused" ></circle>
<circle cx="180.27501094938785" cy="492.66362120049905" r="43.403032291251186" fill="#dfe5fb" transform="matrix(1,0,0,1,-1.600266933441162,0)" style="transform:matrix(1, 0, 0, 1, -1.60027, 0);animation-play-state:paused" ></circle>
<circle cx="223.67804324063903" cy="474.32905197562854" r="70.22354169924853" fill="#dfe5fb" transform="matrix(1,0,0,1,-3.0886495113372803,0)" style="transform:matrix(1, 0, 0, 1, -3.08865, 0);animation-play-state:paused" ></circle>
<circle cx="293.9015849398876" cy="500.6497035263543" r="44.395907070403446" fill="#dfe5fb" transform="matrix(1,0,0,1,-5,0)" style="transform:matrix(1, 0, 0, 1, -5, 0);animation-play-state:paused" ></circle>
<circle cx="338.297492010291" cy="498.72399819910913" r="53.293561643853316" fill="#dfe5fb" transform="matrix(1,0,0,1,-6.911351203918457,0)" style="transform:matrix(1, 0, 0, 1, -6.91135, 0);animation-play-state:paused" ></circle>
<circle cx="391.59105365414433" cy="489.0428868358033" r="81.94872031924348" fill="#dfe5fb" transform="matrix(1,0,0,1,-8.39973258972168,0)" style="transform:matrix(1, 0, 0, 1, -8.39973, 0);animation-play-state:paused" ></circle>
<circle cx="473.5397739733878" cy="502.69256374115514" r="76.9198498586499" fill="#dfe5fb" transform="matrix(1,0,0,1,-9.355050086975098,0)" style="transform:matrix(1, 0, 0, 1, -9.35505, 0);animation-play-state:paused" ></circle>
<circle cx="550.4596238320377" cy="511.2035711519364" r="85.01158473458285" fill="#dfe5fb" transform="matrix(1,0,0,1,-9.853780746459961,0)" style="transform:matrix(1, 0, 0, 1, -9.85378, 0);animation-play-state:paused" ></circle>
<circle cx="635.4712085666205" cy="525.6844434254886" r="63.654840061175484" fill="#dfe5fb" transform="matrix(1,0,0,1,-10,0)" style="transform:matrix(1, 0, 0, 1, -10, 0);animation-play-state:paused" ></circle>
<circle cx="699.126048627796" cy="529.3819032137673" r="57.11050334901737" fill="#dfe5fb" transform="matrix(1,0,0,1,-9.853780746459961,0)" style="transform:matrix(1, 0, 0, 1, -9.85378, 0);animation-play-state:paused" ></circle>
<circle cx="756.2365519768133" cy="520.2661712393543" r="83.41924041156003" fill="#dfe5fb" transform="matrix(1,0,0,1,-9.355049133300781,0)" style="transform:matrix(1, 0, 0, 1, -9.35505, 0);animation-play-state:paused" ></circle>
<circle cx="839.6557923883734" cy="506.4494780903537" r="89.19771498520993" fill="#dfe5fb" transform="matrix(1,0,0,1,-8.399733543395996,0)" style="transform:matrix(1, 0, 0, 1, -8.39973, 0);animation-play-state:paused" ></circle>
<circle cx="928.8535073735833" cy="499.9988538504189" r="71.76964528714772" fill="#dfe5fb" transform="matrix(1,0,0,1,-6.911350727081299,0)" style="transform:matrix(1, 0, 0, 1, -6.91135, 0);animation-play-state:paused" ></circle>
<circle cx="1000.623152660731" cy="496.82309813213897" r="61.24349925429473" fill="#dfe5fb" transform="matrix(1,0,0,1,-5,0)" style="transform:matrix(1, 0, 0, 1, -5, 0);animation-play-state:paused" ></circle>
<circle cx="1061.8666519150256" cy="487.7967078719549" r="64.90376929522117" fill="#dfe5fb" transform="matrix(1,0,0,1,-3.088648796081543,0)" style="transform:matrix(1, 0, 0, 1, -3.08865, 0);animation-play-state:paused" ></circle>
<circle cx="1126.7704212102467" cy="475.1978619128675" r="71.57015296627635" fill="#dfe5fb" transform="matrix(1,0,0,1,-1.600266456604004,0)" style="transform:matrix(1, 0, 0, 1, -1.60027, 0);animation-play-state:paused" ></circle>
<circle cx="1198.340574176523" cy="464.7554950694877" r="73.1635852979979" fill="#dfe5fb" transform="matrix(1,0,0,1,-0.6449508666992188,0)" style="transform:matrix(1, 0, 0, 1, -0.644951, 0);animation-play-state:paused" ></circle>
<circle cx="1271.504159474521" cy="462.6030409363063" r="66.14952260520842" fill="#dfe5fb" transform="matrix(1,0,0,1,-0.14621925354003906,0)" style="transform:matrix(1, 0, 0, 1, -0.146219, 0);animation-play-state:paused" ></circle>
<circle cx="1337.6536820797294" cy="496.4848395189715" r="30.008047580277022" fill="#dfe5fb" transform="matrix(1,0,0,1,0,0)" style="transform:matrix(1, 0, 0, 1, 0, 0);animation-play-state:paused" ></circle>
<circle cx="1367.6617296600064" cy="472.6197567018066" r="48.532124752645906" fill="#dfe5fb" transform="matrix(1,0,0,1,-0.14621886610984802,0)" style="transform:matrix(1, 0, 0, 1, -0.146219, 0);animation-play-state:paused" ></circle>
<circle cx="1416.1938544126522" cy="461.4058311795904" r="54.02484056372947" fill="#dfe5fb" transform="matrix(1,0,0,1,-0.6449503302574158,0)" style="transform:matrix(1, 0, 0, 1, -0.64495, 0);animation-play-state:paused" ></circle>
<circle cx="0" cy="521.7389006322301" r="57.71758280647492" fill="#ecedfc" transform="matrix(1,0,0,1,0,0)" style="transform:matrix(1, 0, 0, 1, 0, 0);animation-play-state:paused" ></circle>
<circle cx="57.71758280647492" cy="523.7427586540973" r="61.22126388561967" fill="#ecedfc" transform="matrix(1,0,0,1,-0.21463721990585327,0)" style="transform:matrix(1, 0, 0, 1, -0.214637, 0);animation-play-state:paused" ></circle>
<circle cx="118.93884669209459" cy="541.1499162239111" r="50.3012941938984" fill="#ecedfc" transform="matrix(1,0,0,1,-0.9663258790969849,0)" style="transform:matrix(1, 0, 0, 1, -0.966326, 0);animation-play-state:paused" ></circle>
<circle cx="169.240140885993" cy="522.7088088543001" r="75.65610457408064" fill="#ecedfc" transform="matrix(1,0,0,1,-2.4294803142547607,0)" style="transform:matrix(1, 0, 0, 1, -2.42948, 0);animation-play-state:paused" ></circle>
<circle cx="244.89624546007363" cy="533.7458640296018" r="74.38225622460826" fill="#ecedfc" transform="matrix(1,0,0,1,-4.600756645202637,0)" style="transform:matrix(1, 0, 0, 1, -4.60076, 0);animation-play-state:paused" ></circle>
<circle cx="319.2785016846819" cy="546.5775031167377" r="69.51418762202972" fill="#ecedfc" transform="matrix(1,0,0,1,-6.911351203918457,0)" style="transform:matrix(1, 0, 0, 1, -6.91135, 0);animation-play-state:paused" ></circle>
<circle cx="388.7926893067116" cy="547.2559696462258" r="84.62619057409829" fill="#ecedfc" transform="matrix(1,0,0,1,-8.632266998291016,0)" style="transform:matrix(1, 0, 0, 1, -8.63227, 0);animation-play-state:paused" ></circle>
<circle cx="473.4188798808099" cy="565.3827549416036" r="69.56963475898311" fill="#ecedfc" transform="matrix(1,0,0,1,-9.60324478149414,0)" style="transform:matrix(1, 0, 0, 1, -9.60324, 0);animation-play-state:paused" ></circle>
<circle cx="542.988514639793" cy="570.9296544235045" r="81.58881866893374" fill="#ecedfc" transform="matrix(1,0,0,1,-9.977882385253906,0)" style="transform:matrix(1, 0, 0, 1, -9.97788, 0);animation-play-state:paused" ></circle>
<circle cx="624.5773333087268" cy="583.0279125403334" r="77.66585646922141" fill="#ecedfc" transform="matrix(1,0,0,1,-9.908178329467773,0)" style="transform:matrix(1, 0, 0, 1, -9.90818, 0);animation-play-state:paused" ></circle>
<circle cx="702.2431897779481" cy="589.5197063280326" r="43.78348000948145" fill="#ecedfc" transform="matrix(1,0,0,1,-9.355049133300781,0)" style="transform:matrix(1, 0, 0, 1, -9.35505, 0);animation-play-state:paused" ></circle>
<circle cx="746.0266697874296" cy="582.895982178623" r="73.18388906723389" fill="#ecedfc" transform="matrix(1,0,0,1,-8.145320892333984,0)" style="transform:matrix(1, 0, 0, 1, -8.14532, 0);animation-play-state:paused" ></circle>
<circle cx="819.2105588546634" cy="581.9025626618221" r="38.01436634956056" fill="#ecedfc" transform="matrix(1,0,0,1,-6.180026531219482,0)" style="transform:matrix(1, 0, 0, 1, -6.18003, 0);animation-play-state:paused" ></circle>
<circle cx="857.224925204224" cy="577.1251526976052" r="45.32704250184707" fill="#ecedfc" transform="matrix(1,0,0,1,-3.8199710845947266,0)" style="transform:matrix(1, 0, 0, 1, -3.81997, 0);animation-play-state:paused" ></circle>
<circle cx="902.551967706071" cy="561.4219261453678" r="76.67821827404192" fill="#ecedfc" transform="matrix(1,0,0,1,-1.8546772003173828,0)" style="transform:matrix(1, 0, 0, 1, -1.85468, 0);animation-play-state:paused" ></circle>
<circle cx="979.2301859801129" cy="564.1492726923809" r="51.59007988564391" fill="#ecedfc" transform="matrix(1,0,0,1,-0.6449499130249023,0)" style="transform:matrix(1, 0, 0, 1, -0.64495, 0);animation-play-state:paused" ></circle>
<circle cx="1030.8202658657567" cy="562.4462535717662" r="46.724823911426654" fill="#ecedfc" transform="matrix(1,0,0,1,-0.09182167053222656,0)" style="transform:matrix(1, 0, 0, 1, -0.0918217, 0);animation-play-state:paused" ></circle>
<circle cx="1077.5450897771834" cy="564.2319782100004" r="38.61527143596912" fill="#ecedfc" transform="matrix(1,0,0,1,-0.022117746993899345,0)" style="transform:matrix(1, 0, 0, 1, -0.0221177, 0);animation-play-state:paused" ></circle>
<circle cx="1116.1603612131526" cy="560.1474462917256" r="40.53982479632222" fill="#ecedfc" transform="matrix(1,0,0,1,-0.3967553675174713,0)" style="transform:matrix(1, 0, 0, 1, -0.396755, 0);animation-play-state:paused" ></circle>
<circle cx="1156.7001860094747" cy="527.6537929010519" r="76.11259316618347" fill="#ecedfc" transform="matrix(1,0,0,1,-1.3677345514297485,0)" style="transform:matrix(1, 0, 0, 1, -1.36773, 0);animation-play-state:paused" ></circle>
<circle cx="1232.812779175658" cy="515.1828715201926" r="78.48595727038145" fill="#ecedfc" transform="matrix(1,0,0,1,-3.088651180267334,0)" style="transform:matrix(1, 0, 0, 1, -3.08865, 0);animation-play-state:paused" ></circle>
<circle cx="1311.2987364460396" cy="556.4088258864101" r="31.335640395656178" fill="#ecedfc" transform="matrix(1,0,0,1,-5.399245738983154,0)" style="transform:matrix(1, 0, 0, 1, -5.39925, 0);animation-play-state:paused" ></circle>
<circle cx="1342.6343768416957" cy="530.4903850152709" r="52.210826286888384" fill="#ecedfc" transform="matrix(1,0,0,1,-7.570521354675293,0)" style="transform:matrix(1, 0, 0, 1, -7.57052, 0);animation-play-state:paused" ></circle>
<circle cx="1394.845203128584" cy="534.5703431677258" r="45.11919099715811" fill="#ecedfc" transform="matrix(1,0,0,1,-9.033675193786621,0)" style="transform:matrix(1, 0, 0, 1, -9.03368, 0);animation-play-state:paused" ></circle>
<circle cx="0" cy="547.9351152482525" r="85.88740395978957" fill="#f7f5fd" transform="matrix(1,0,0,1,0,0)" style="transform:matrix(1, 0, 0, 1, 0, 0);animation-play-state:paused" ></circle>
<circle cx="85.88740395978957" cy="589.1838225008814" r="58.9230706680303" fill="#f7f5fd" transform="matrix(1,0,0,1,-0.2978716492652893,0)" style="transform:matrix(1, 0, 0, 1, -0.297872, 0);animation-play-state:paused" ></circle>
<circle cx="144.81047462781987" cy="611.2823035352083" r="42.0037697480474" fill="#f7f5fd" transform="matrix(1,0,0,1,-1.3677335977554321,0)" style="transform:matrix(1, 0, 0, 1, -1.36773, 0);animation-play-state:paused" ></circle>
<circle cx="186.81424437586728" cy="607.137612757445" r="50.31383600983271" fill="#f7f5fd" transform="matrix(1,0,0,1,-3.4464612007141113,0)" style="transform:matrix(1, 0, 0, 1, -3.44646, 0);animation-play-state:paused" ></circle>
<circle cx="237.1280803857" cy="597.2316146796293" r="68.63668981737511" fill="#f7f5fd" transform="matrix(1,0,0,1,-6.180027961730957,0)" style="transform:matrix(1, 0, 0, 1, -6.18003, 0);animation-play-state:paused" ></circle>
<circle cx="305.7647702030751" cy="599.5809217559172" r="77.5803081356208" fill="#f7f5fd" transform="matrix(1,0,0,1,-8.39973258972168,0)" style="transform:matrix(1, 0, 0, 1, -8.39973, 0);animation-play-state:paused" ></circle>
<circle cx="383.3450783386959" cy="609.9221737812534" r="78.02351215596875" fill="#f7f5fd" transform="matrix(1,0,0,1,-9.60324478149414,0)" style="transform:matrix(1, 0, 0, 1, -9.60324, 0);animation-play-state:paused" ></circle>
<circle cx="461.36859049466466" cy="624.081443802712" r="69.12894222206761" fill="#f7f5fd" transform="matrix(1,0,0,1,-9.994569778442383,0)" style="transform:matrix(1, 0, 0, 1, -9.99457, 0);animation-play-state:paused" ></circle>
<circle cx="530.4975327167323" cy="632.361436759272" r="69.56247397280605" fill="#f7f5fd" transform="matrix(1,0,0,1,-9.78536319732666,0)" style="transform:matrix(1, 0, 0, 1, -9.78536, 0);animation-play-state:paused" ></circle>
<circle cx="600.0600066895383" cy="642.8106807225545" r="56.1983112051302" fill="#f7f5fd" transform="matrix(1,0,0,1,-8.843367576599121,0)" style="transform:matrix(1, 0, 0, 1, -8.84337, 0);animation-play-state:paused" ></circle>
<circle cx="656.2583178946685" cy="647.3658224767895" r="77.3493865798466" fill="#f7f5fd" transform="matrix(1,0,0,1,-6.911350727081299,0)" style="transform:matrix(1, 0, 0, 1, -6.91135, 0);animation-play-state:paused" ></circle>
<circle cx="733.6077044745151" cy="644.7888538026862" r="69.85452934512554" fill="#f7f5fd" transform="matrix(1,0,0,1,-4.205997467041016,0)" style="transform:matrix(1, 0, 0, 1, -4.206, 0);animation-play-state:paused" ></circle>
<circle cx="803.4622338196407" cy="641.35617623188" r="45.56567526582529" fill="#f7f5fd" transform="matrix(1,0,0,1,-1.8546772003173828,0)" style="transform:matrix(1, 0, 0, 1, -1.85468, 0);animation-play-state:paused" ></circle>
<circle cx="849.027909085466" cy="636.521873092132" r="49.633024213334394" fill="#f7f5fd" transform="matrix(1,0,0,1,-0.5121517181396484,0)" style="transform:matrix(1, 0, 0, 1, -0.512152, 0);animation-play-state:paused" ></circle>
<circle cx="898.6609332988004" cy="625.9142296540772" r="66.2057057351789" fill="#f7f5fd" transform="matrix(1,0,0,1,-0.02211761474609375,0)" style="transform:matrix(1, 0, 0, 1, -0.0221176, 0);animation-play-state:paused" ></circle>
<circle cx="964.8666390339793" cy="612.559211886206" r="77.62257821554468" fill="#f7f5fd" transform="matrix(1,0,0,1,-0.14621897041797638,0)" style="transform:matrix(1, 0, 0, 1, -0.146219, 0);animation-play-state:paused" ></circle>
<circle cx="1042.489217249524" cy="596.5892243527135" r="86.1466723337581" fill="#f7f5fd" transform="matrix(1,0,0,1,-0.966326117515564,0)" style="transform:matrix(1, 0, 0, 1, -0.966326, 0);animation-play-state:paused" ></circle>
<circle cx="1128.635889583282" cy="616.8483604437748" r="43.61851300979103" fill="#f7f5fd" transform="matrix(1,0,0,1,-2.7490475177764893,0)" style="transform:matrix(1, 0, 0, 1, -2.74905, 0);animation-play-state:paused" ></circle>
<circle cx="1172.254402593073" cy="588.9249788522881" r="72.21403156036982" fill="#f7f5fd" transform="matrix(1,0,0,1,-5.39924430847168,0)" style="transform:matrix(1, 0, 0, 1, -5.39924, 0);animation-play-state:paused" ></circle>
<circle cx="1244.468434153443" cy="567.3554240291593" r="84.79141763659602" fill="#f7f5fd" transform="matrix(1,0,0,1,-7.868856906890869,0)" style="transform:matrix(1, 0, 0, 1, -7.86886, 0);animation-play-state:paused" ></circle>
<circle cx="1329.259851790039" cy="613.6017335246279" r="32.936978229331174" fill="#f7f5fd" transform="matrix(1,0,0,1,-9.355050086975098,0)" style="transform:matrix(1, 0, 0, 1, -9.35505, 0);animation-play-state:paused" ></circle>
<circle cx="1362.19683001937" cy="575.7177230539978" r="63.086517390269464" fill="#f7f5fd" transform="matrix(1,0,0,1,-9.949308395385742,0)" style="transform:matrix(1, 0, 0, 1, -9.94931, 0);animation-play-state:paused" ></circle>
<circle cx="0" cy="646.2101105289163" r="53.991574559236454" fill="#ffffff" transform="matrix(1,0,0,1,0,0)" style="transform:matrix(1, 0, 0, 1, 0, 0);animation-play-state:paused" ></circle>
<circle cx="53.991574559236454" cy="625.1508198645729" r="77.68177613758986" fill="#ffffff" transform="matrix(1,0,0,1,-0.3967548906803131,0)" style="transform:matrix(1, 0, 0, 1, -0.396755, 0);animation-play-state:paused" ></circle>
<circle cx="131.67335069682633" cy="680.3323276009502" r="31.660027491604183" fill="#ffffff" transform="matrix(1,0,0,1,-1.8546782732009888,0)" style="transform:matrix(1, 0, 0, 1, -1.85468, 0);animation-play-state:paused" ></circle>
<circle cx="163.33337818843052" cy="649.7334063073944" r="67.10244885168999" fill="#ffffff" transform="matrix(1,0,0,1,-4.60075569152832,0)" style="transform:matrix(1, 0, 0, 1, -4.60076, 0);animation-play-state:paused" ></circle>
<circle cx="230.4358270401205" cy="677.0078461717029" r="42.75018227964671" fill="#ffffff" transform="matrix(1,0,0,1,-7.57051944732666,0)" style="transform:matrix(1, 0, 0, 1, -7.57052, 0);animation-play-state:paused" ></circle>
<circle cx="273.1860093197672" cy="688.885972370747" r="30.71287871706034" fill="#ffffff" transform="matrix(1,0,0,1,-9.355050086975098,0)" style="transform:matrix(1, 0, 0, 1, -9.35505, 0);animation-play-state:paused" ></circle>
<circle cx="303.89888803682754" cy="669.4049383826084" r="62.44909820487482" fill="#ffffff" transform="matrix(1,0,0,1,-9.977882385253906,0)" style="transform:matrix(1, 0, 0, 1, -9.97788, 0);animation-play-state:paused" ></circle>
<circle cx="366.34798624170236" cy="669.6882818194497" r="74.25581366756866" fill="#ffffff" transform="matrix(1,0,0,1,-9.78536319732666,0)" style="transform:matrix(1, 0, 0, 1, -9.78536, 0);animation-play-state:paused" ></circle>
<circle cx="440.603799909271" cy="681.9691337925144" r="68.16691575022983" fill="#ffffff" transform="matrix(1,0,0,1,-8.632266998291016,0)" style="transform:matrix(1, 0, 0, 1, -8.63227, 0);animation-play-state:paused" ></circle>
<circle cx="508.77071565950087" cy="701.5367726360253" r="30.91416919406057" fill="#ffffff" transform="matrix(1,0,0,1,-6.180026531219482,0)" style="transform:matrix(1, 0, 0, 1, -6.18003, 0);animation-play-state:paused" ></circle>
<circle cx="539.6848848535615" cy="699.7278486768909" r="44.76661647433844" fill="#ffffff" transform="matrix(1,0,0,1,-3.088648796081543,0)" style="transform:matrix(1, 0, 0, 1, -3.08865, 0);animation-play-state:paused" ></circle>
<circle cx="584.4515013278999" cy="697.1885193553064" r="79.76818019752301" fill="#ffffff" transform="matrix(1,0,0,1,-0.9663257598876953,0)" style="transform:matrix(1, 0, 0, 1, -0.966326, 0);animation-play-state:paused" ></circle>
<circle cx="664.2196815254229" cy="709.606395341328" r="42.23534969873844" fill="#ffffff" transform="matrix(1,0,0,1,-0.09182167053222656,0)" style="transform:matrix(1, 0, 0, 1, -0.0918217, 0);animation-play-state:paused" ></circle>
<circle cx="706.4550312241613" cy="708.9304821702817" r="50.219526612038926" fill="#ffffff" transform="matrix(1,0,0,1,-0.09182170033454895,0)" style="transform:matrix(1, 0, 0, 1, -0.0918217, 0);animation-play-state:paused" ></circle>
<circle cx="756.6745578362003" cy="704.9332261869273" r="46.868356323009984" fill="#ffffff" transform="matrix(1,0,0,1,-0.9663257002830505,0)" style="transform:matrix(1, 0, 0, 1, -0.966326, 0);animation-play-state:paused" ></circle>
<circle cx="803.5429141592102" cy="700.957164121325" r="47.41919059129601" fill="#ffffff" transform="matrix(1,0,0,1,-3.0886495113372803,0)" style="transform:matrix(1, 0, 0, 1, -3.08865, 0);animation-play-state:paused" ></circle>
<circle cx="850.9621047505062" cy="694.9368181349249" r="54.43268106092046" fill="#ffffff" transform="matrix(1,0,0,1,-6.180027961730957,0)" style="transform:matrix(1, 0, 0, 1, -6.18003, 0);animation-play-state:paused" ></circle>
<circle cx="905.3947858114267" cy="691.114877838348" r="50.89125024092807" fill="#ffffff" transform="matrix(1,0,0,1,-8.632266998291016,0)" style="transform:matrix(1, 0, 0, 1, -8.63227, 0);animation-play-state:paused" ></circle>
<circle cx="956.2860360523548" cy="685.2737810437326" r="53.579416280421995" fill="#ffffff" transform="matrix(1,0,0,1,-9.785362243652344,0)" style="transform:matrix(1, 0, 0, 1, -9.78536, 0);animation-play-state:paused" ></circle>
<circle cx="1009.8654523327768" cy="675.8615101486674" r="61.18620673322819" fill="#ffffff" transform="matrix(1,0,0,1,-9.977882385253906,0)" style="transform:matrix(1, 0, 0, 1, -9.97788, 0);animation-play-state:paused" ></circle>
<circle cx="1071.051659066005" cy="656.556448937227" r="79.8539414944861" fill="#ffffff" transform="matrix(1,0,0,1,-9.355049133300781,0)" style="transform:matrix(1, 0, 0, 1, -9.35505, 0);animation-play-state:paused" ></circle>
<circle cx="1150.9056005604912" cy="670.1818460130934" r="49.65175158490294" fill="#ffffff" transform="matrix(1,0,0,1,-7.57051944732666,0)" style="transform:matrix(1, 0, 0, 1, -7.57052, 0);animation-play-state:paused" ></circle>
<circle cx="1200.5573521453941" cy="632.8627648044398" r="85.92885312990934" fill="#ffffff" transform="matrix(1,0,0,1,-4.600756645202637,0)" style="transform:matrix(1, 0, 0, 1, -4.60076, 0);animation-play-state:paused" ></circle>
<circle cx="1286.4862052753035" cy="652.4550893287078" r="55.215531632369434" fill="#ffffff" transform="matrix(1,0,0,1,-1.8546791076660156,0)" style="transform:matrix(1, 0, 0, 1, -1.85468, 0);animation-play-state:paused" ></circle>
<circle cx="1341.701736907673" cy="627.5861895511159" r="72.07565698860616" fill="#ffffff" transform="matrix(1,0,0,1,-0.3967552185058594,0)" style="transform:matrix(1, 0, 0, 1, -0.396755, 0);animation-play-state:paused" ></circle></g></svg>